# xmcd CD database file
#
# Track frame offsets:
#	150
#	18781
#	32828
#	55725
#	96201
#	116435
#	128571
#	161114
#	186928
#	213698
#	235817
#	264034
#
# Disc length: 3900 seconds
#
# Revision: 0
# Processed by: cddbd v1.4PL0 Copyright (c) Steve Scherf et al.
# Submitted via: CDex 1.51
#
DISCID=990f3a0c
DTITLE=Kat Baloun and Nina T. Davis - Live at Yorckschlösschen
DYEAR=2003
DGENRE=Blues
TTITLE0=Berlin Blues
TTITLE1=Big Kat Boogie
TTITLE2=Why you so mean to me
TTITLE3=Dangerous Mood
TTITLE4=Jambalaya
TTITLE5=Cakewalk into town
TTITLE6=Walking blues
TTITLE7=Still haven´t found
TTITLE8=Honky Tonk Woman
TTITLE9=Bright lights, Big City
TTITLE10=Downhome Blues
TTITLE11=Some Kind of Wonderful
EXTD=YEAR: 2003
EXTT0=
EXTT1=
EXTT2=
EXTT3=
EXTT4=
EXTT5=
EXTT6=
EXTT7=
EXTT8=
EXTT9=
EXTT10=
EXTT11=
PLAYORDER=
